<svg width="102" height="100" viewBox="0 0 102 100" fill="none" xmlns="http://www.w3.org/2000/svg">
<path d="M97.995 46.8739C99.6462 48.6419 99.6462 51.3586 97.995 53.1266L93.8669 57.4819C92.1287 59.5086 91.4335 62.1822 91.9115 64.8126L93.302 70.6341C93.8234 73.0058 92.4329 75.3344 90.1299 76.0675L84.3505 77.7924C81.8302 78.6979 79.8748 80.6384 78.9623 83.1395L77.2676 88.8316C76.5288 91.1171 74.1823 92.497 71.7924 91.9795L65.9696 90.5996C63.3189 90.1253 60.6248 90.8583 58.5824 92.5401L54.1936 96.6367C52.412 98.2753 49.6744 98.2753 47.8928 96.6367L43.504 92.5401C41.4617 90.8152 38.7675 90.1253 36.1169 90.5996L30.2506 91.9795C27.9041 92.497 25.5141 91.1602 24.7754 88.8316L23.0373 83.0964C22.1248 80.5953 20.1693 78.6548 17.649 77.7493L11.9131 76.0675C9.61008 75.3344 8.21956 73.0058 8.74101 70.6341L10.1315 64.8126C10.6095 62.1822 9.8708 59.5086 8.17611 57.4819L4.048 53.1266C2.39676 51.3586 2.39676 48.6419 4.048 46.8739L8.17611 42.5185C9.91426 40.4918 10.6095 37.8182 10.1315 35.1878L8.74101 29.3663C8.21956 26.9946 9.61008 24.666 11.9131 23.933L17.6925 22.2081C20.2128 21.3025 22.1682 19.362 23.0807 16.8609L24.7754 11.1688C25.5141 8.88336 27.8607 7.50346 30.2506 8.02092L36.0734 9.40083C38.7241 9.87517 41.4182 9.1421 43.4605 7.46034L47.8494 3.36374C49.631 1.72511 52.3686 1.72511 54.1502 3.36374L58.539 7.46034C60.5813 9.18522 63.2754 9.87517 65.9261 9.40083L71.7924 8.02092C74.1389 7.50346 76.5288 8.84024 77.2676 11.1688L79.0057 16.9041C79.9182 19.4051 81.8737 21.3456 84.394 22.2512L90.1299 23.933C92.4329 24.666 93.8234 26.9946 93.302 29.3663L91.9115 35.1447C91.4335 37.7751 92.1722 40.4487 93.8669 42.4754L97.995 46.8308V46.8739Z" stroke="white" stroke-width="2" stroke-linecap="round" stroke-linejoin="round"/>
<path d="M38.5937 68.7364C52.8031 75.8946 52.1079 74.5147 64.3184 74.5147C69.4024 74.5147 72.0097 71.1943 73.4871 66.3646L77.3979 54.2474C77.7456 53.0399 77.5283 51.7894 76.7896 50.7976C76.0509 49.8058 74.9211 49.2452 73.6609 49.2452H64.188C62.9713 49.2452 61.8415 48.6846 61.1028 47.7359C60.3641 46.7872 60.1033 45.5798 60.4075 44.4155L61.8849 37.7747C62.276 36.2223 61.5373 34.6268 60.0599 33.9369C58.5825 33.2469 56.8878 33.7213 55.9318 35.0149L46.4589 47.0891C45.7202 48.124 44.5469 48.7277 43.2867 48.7277H38.5068" stroke="white" stroke-width="2" stroke-linecap="round" stroke-linejoin="round"/>
<path d="M27.7305 44.459H34.2485C36.6385 44.459 38.5939 46.3995 38.5939 48.7712V70.3322C38.5939 71.4965 38.1159 72.5746 37.3337 73.3939C36.5081 74.2132 35.4218 74.6444 34.2485 74.6444H27.7305" stroke="white" stroke-width="2" stroke-linecap="round" stroke-linejoin="round"/>
<path d="M35.5957 35.058V30.9614" stroke="white" stroke-width="2" stroke-linecap="round" stroke-linejoin="round"/>
<path d="M33.5527 33.0312H37.6808" stroke="white" stroke-width="2" stroke-linecap="round" stroke-linejoin="round"/>
<path d="M49.6309 25.7006V21.604" stroke="white" stroke-width="2" stroke-linecap="round" stroke-linejoin="round"/>
<path d="M47.5449 23.6738H51.673" stroke="white" stroke-width="2" stroke-linecap="round" stroke-linejoin="round"/>
<path d="M70.4893 28.935V24.8384" stroke="white" stroke-width="2" stroke-linecap="round" stroke-linejoin="round"/>
<path d="M68.4463 26.9082H72.5744" stroke="white" stroke-width="2" stroke-linecap="round" stroke-linejoin="round"/>
<path d="M74.0518 41.3974V37.3008" stroke="white" stroke-width="2" stroke-linecap="round" stroke-linejoin="round"/>
<path d="M71.9658 39.3271H76.0939" stroke="white" stroke-width="2" stroke-linecap="round" stroke-linejoin="round"/>
</svg>
