<svg width="100" height="100" viewBox="0 0 100 100" fill="none" xmlns="http://www.w3.org/2000/svg">
<path d="M54.1667 60.4168H93.75C96.0417 60.4168 97.9167 58.5418 97.9167 56.2502V6.25016C97.9167 3.9585 96.0417 2.0835 93.75 2.0835H43.75" stroke="white" stroke-width="2" stroke-linecap="round" stroke-linejoin="round"/>
<path d="M31.2497 97.9167L33.333 72.9167H43.7497V58.3333C43.7497 46.8333 34.4163 37.5 22.9163 37.5C11.4163 37.5 2.08301 46.8333 2.08301 58.3333V72.9167H12.4997L14.583 97.9167H31.2497Z" stroke="white" stroke-width="2" stroke-linecap="round" stroke-linejoin="round"/>
<path d="M22.9163 31.2502C30.958 31.2502 37.4997 24.7085 37.4997 16.6668C37.4997 8.62516 30.958 2.0835 22.9163 2.0835C14.8747 2.0835 8.33301 8.62516 8.33301 16.6668C8.33301 24.7085 14.8747 31.2502 22.9163 31.2502Z" stroke="white" stroke-width="2" stroke-linecap="round" stroke-linejoin="round"/>
<path d="M52.083 18.75L62.4997 29.1667L52.083 39.5833" stroke="white" stroke-width="2" stroke-linecap="round" stroke-linejoin="round"/>
<path d="M72.916 31.25H89.5827" stroke="white" stroke-width="2" stroke-linecap="round" stroke-linejoin="round"/>
</svg>
