<svg width="100" height="100" viewBox="0 0 100 100" fill="none" xmlns="http://www.w3.org/2000/svg">
<path d="M49.9997 97.9168C76.458 97.9168 97.9163 76.4585 97.9163 50.0002C97.9163 23.5418 76.458 2.0835 49.9997 2.0835C23.5413 2.0835 2.08301 23.5418 2.08301 50.0002C2.08301 76.4585 23.5413 97.9168 49.9997 97.9168Z" stroke="white" stroke-width="2" stroke-linecap="round" stroke-linejoin="round"/>
<path d="M33.3333 56.2502C43.125 56.2502 51.0417 48.3335 51.0417 38.5418C51.0417 28.7502 43.125 20.8335 33.3333 20.8335C23.5417 20.8335 15.625 28.7502 15.625 38.5418C15.625 48.3335 23.5417 56.2502 33.3333 56.2502Z" stroke="white" stroke-width="2" stroke-linecap="round" stroke-linejoin="round"/>
<path d="M81.9994 67.8753C73.0827 64.7086 63.1244 67.9586 57.791 75.7503C49.041 62.292 31.041 58.417 17.541 67.1253" stroke="white" stroke-width="2" stroke-linecap="round" stroke-linejoin="round"/>
<path d="M75 60.417C81.9167 60.417 87.5 54.8337 87.5 47.917C87.5 41.0003 81.9167 35.417 75 35.417C68.0833 35.417 62.5 41.0003 62.5 47.917C62.5 54.8337 68.0833 60.417 75 60.417Z" stroke="white" stroke-width="2" stroke-linecap="round" stroke-linejoin="round"/>
</svg>
